<?xml version="1.0" encoding="UTF-8"?>
<svg id="Ebene_1" data-name="Ebene 1" xmlns="http://www.w3.org/2000/svg" version="1.1" viewBox="0 0 62.2 30.9">
  <defs>
    <style>
      .cls-1 {
        fill: #000;
        font-family: ArialMT, Arial;
        font-size: 23.5px;
      }

      .cls-1, .cls-2 {
        isolation: isolate;
      }

      .cls-3 {
        fill: #e6003a;
        stroke-width: 0px;
      }
    </style>
  </defs>
  <g class="cls-2">
    <g class="cls-2">
      <text class="cls-1" transform="translate(0 23.6) scale(.6 1)"><tspan x="0" y="0">F</tspan></text>
    </g>
    <g class="cls-2">
      <text class="cls-1" transform="translate(7.4 23.6) scale(.6 1)"><tspan x="0" y="0">indME</tspan></text>
    </g>
  </g>
  <g>
    <path class="cls-3" d="M52.6,3.9h0c.8,0,1.5.9,1.5,2v4.7c0,1.1-.7,2-1.5,2h0c-.8,0-1.5-.9-1.5-2v-4.7c0-1.1.7-2,1.5-2Z"/>
    <path class="cls-3" d="M44.8,11.7h0c.3-1,1.1-1.6,1.9-1.3l3.3,1.5c.8.4,1.2,1.5,1,2.5h0c-.3,1-1.1,1.6-1.9,1.3l-3.3-1.5c-.8-.4-1.2-1.5-1-2.5h0Z"/>
    <path class="cls-3" d="M54.5,14.5h0c-.3-1,.2-2.2,1-2.5l3.3-1.5c.8-.4,1.6.2,1.9,1.3h0c.3,1-.2,2.2-1,2.5l-3.3,1.5c-.8.4-1.6-.2-1.9-1.3h0Z"/>
    <path class="cls-3" d="M53.8,17.3h0c.7-.6,1.6-.4,2.1.5l2,3.8c.5.9.3,2.2-.4,2.8h0c-.7.6-1.6.4-2.1-.5l-2-3.8c-.5-.9-.3-2.2.4-2.8Z"/>
    <path class="cls-3" d="M47.7,24.4h0c-.7-.6-.9-1.9-.4-2.8l2-3.8c.5-.9,1.4-1.2,2.1-.5h0c.7.6.9,1.9.4,2.8l-2,3.8c-.5.9-1.4,1.2-2.1.5h0Z"/>
  </g>
</svg>