<?xml version="1.0" encoding="UTF-8"?>
<svg id="layer" xmlns="http://www.w3.org/2000/svg" version="1.1" viewBox="0 0 841.9 595.3">
  <defs>
    <style>
      .cls-1 {
        fill: #e20039;
        stroke-width: 0px;
      }
    </style>
  </defs>
  <g>
    <path class="cls-1" d="M420.9,259.5c-22.6,0-40.5-17.9-40.5-40.5v-100.5c0-22.6,17.9-40.5,40.5-40.5s40.5,17.9,40.5,40.5v100.5c0,21.8-17.9,40.5-40.5,40.5"/>
    <path class="cls-1" d="M512.8,325.7c-17.1,0-32.7-10.9-38.9-28-7-21,4.7-44.4,26.5-51.4l95.8-31.2c21-7,44.4,4.7,51.4,26.5,7,21-4.7,44.4-25.7,51.4l-95.8,31.2c-4.7.8-9.3,1.6-13.2,1.6"/>
  </g>
  <path class="cls-1" d="M329,325.7c-3.9,0-8.6-.8-12.5-2.3l-95.8-31.2c-21-7-32.7-29.6-26.5-51.4,7-21,29.6-32.7,51.4-26.5l95.8,31.2c21,7,32.7,29.6,26.5,51.4-5.5,17.9-21.8,28.8-38.9,28.8"/>
  <path class="cls-1" d="M304.8,514.9c-8.6,0-16.4-2.3-24.1-7.8-17.9-13.2-21.8-38.9-9.3-56.9l59.2-81.8c13.2-17.9,38.9-21.8,56.9-8.6,17.9,13.2,21.8,38.9,8.6,56.9l-59.2,81.8c-7,10.9-19.5,16.4-31.9,16.4"/>
  <path class="cls-1" d="M536.9,514.9c-12.5,0-24.9-5.5-32.7-17.1l-59.2-81.8c-13.2-17.9-9.3-43.6,8.6-56.9,17.9-13.2,43.6-9.3,56.9,9.3l59.2,81.8c13.2,17.9,9.3,43.6-9.3,56.9-7,5.5-14.8,7.8-23.4,7.8"/>
</svg>