<?xml version="1.0" encoding="utf-8" standalone="yes"?>
<!DOCTYPE svg PUBLIC "-//W3C//DTD SVG 1.1//EN" "http://www.w3.org/Graphics/SVG/1.1/DTD/svg11.dtd">
<svg width="612" height="445" viewBox="0 0 612 445" style="fill:none;stroke:none;fill-rule:evenodd;clip-rule:evenodd;stroke-linecap:round;stroke-linejoin:round;stroke-miterlimit:1.5;" version="1.1" xmlns="http://www.w3.org/2000/svg" xmlns:xlink="http://www.w3.org/1999/xlink"><style id="fontImports">@import url("https://fonts.googleapis.com/css2?family=Shantell+Sans:wght@300..800&amp;display=block");</style><g id="blend" style="mix-blend-mode:multiply"><g id="g-root-3.cu_sy_1lws64s1ot62o9-fill" data-item-order="-69877" data-item-id="3.cu_sy_1lws64s1ot62o9" data-item-class="ScenePart Indexed Fill Stroke" data-item-index="3" data-renderer-id="0" transform="translate(191.67901611328125, 235.50001525878906)"><g id="3.cu_sy_1lws64s1ot62o9-fill" stroke="none" fill="#fde6cf"><g><path d="M 209.821 89.1L 210.021 75.2L 190.121 68.8L 189.821 88.8ZM 190.121 68.8L 168.321 100.1L 188.221 106.6L 210.021 75.2ZM 188.221 106.6L 190.021 38.9L 170.221 33.7L 168.321 100.1ZM 170.221 33.7L 140.121 90.7L 159.821 96.3L 190.021 38.9ZM 159.821 96.3L 164.421 25.4L 144.621 21.4L 140.121 90.7ZM 144.621 21.4L 119.421 94L 139.221 97.8L 164.421 25.4ZM 139.221 97.8L 142.821 21.8L 123.021 18.6L 119.421 94ZM 123.021 18.6L 94.221 121.4L 114.121 124.3L 142.821 21.8ZM 114.121 124.3L 115.721 28.3L 95.721 25.2L 94.221 121.4ZM 95.721 25.2L 75.421 93.3L 95.521 95.8L 115.721 28.3ZM 95.521 95.8L 92.521 24.7L 72.421 22.8L 75.421 93.3ZM 72.421 22.8L 57.021 88.8L 77.021 90.8L 92.521 24.7ZM 77.021 90.8L 74.821 26.3L 54.721 23.5L 57.021 88.8ZM 54.721 23.5L 32.421 92.5L 52.621 95L 74.821 26.3ZM 52.621 95L 48.821 34.6L 28.621 32.1L 32.421 92.5ZM 28.621 32.1L 10.821 88L 31.621 88.8L 48.821 34.6ZM 31.621 88.8L 26.821 68.2L 7.321 72.8L 10.821 88Z" fill-rule="nonzero"></path></g></g></g><g id="g-root-2.cu_sy_1lws64s1ot62o8-fill" data-item-order="-69875" data-item-id="2.cu_sy_1lws64s1ot62o8" data-item-class="ScenePart Indexed Fill Stroke" data-item-index="2" data-renderer-id="0" transform="translate(289.8759765625, 88.08702087402344)"><g id="2.cu_sy_1lws64s1ot62o8-fill" stroke="none" fill="#fff9ce"><g><path d="M 38.224 6.713L 30.224 12.813L 35.424 34.113L 50.424 22.513ZM 35.424 34.113L 71.424 40.713L 67.824 19.713L 30.224 12.813ZM 67.824 19.713L 11.824 51.413L 18.024 70.913L 71.424 40.713ZM 18.024 70.913L 71.824 65.613L 66.024 46.113L 11.824 51.413ZM 66.024 46.113L 8.924 76.213L 15.624 95.313L 71.824 65.613ZM 15.624 95.313L 97.924 80.013L 91.124 60.913L 8.924 76.213ZM 91.124 60.913L 26.924 96.013L 35.024 114.413L 97.924 80.013ZM 35.024 114.413L 125.324 83.913L 117.424 65.513L 26.924 96.013ZM 117.424 65.513L 37.924 107.913L 44.824 126.913L 125.324 83.913ZM 44.824 126.913L 119.424 111.913L 111.824 93.013L 37.924 107.913ZM 111.824 93.013L 47.824 133.113L 55.824 151.713L 119.424 111.913ZM 55.824 151.713L 123.724 134.813L 115.624 116.213L 47.824 133.113ZM 115.624 116.213L 52.624 156.913L 61.224 175.113L 123.724 134.813ZM 61.224 175.113L 133.524 151.613L 124.624 133.413L 52.624 156.913ZM 124.624 133.413L 76.024 166.213L 83.724 185.113L 133.524 151.613ZM 83.724 185.113L 144.224 173.713L 135.524 155.013L 76.024 166.213ZM 135.524 155.013L 115.124 171.613L 127.724 187.113L 144.224 173.713Z" fill-rule="nonzero"></path></g></g></g><g id="g-root-1.cu_sy_1qbz7641ot651r-fill" data-item-order="-69873" data-item-id="1.cu_sy_1qbz7641ot651r" data-item-class="ScenePart Indexed Indexed_1 Fill Stroke" data-item-index="1" data-renderer-id="0" transform="translate(157, 88.00001525878906)"><g id="1.cu_sy_1qbz7641ot651r-fill" stroke="none" fill="#d5f7e8"><g><path d="M 10.6 183.3L 19.9 186.1L 36.3 170.1L 16.3 164.1ZM 36.3 170.1L 26.6 134.7L 9.3 147.1L 19.9 186.1ZM 9.3 147.1L 65.3 184.8L 78.6 169.6L 26.6 134.7ZM 78.6 169.6L 38.3 124.4L 26.1 140.8L 65.3 184.8ZM 26.1 140.8L 90.6 170.9L 102.2 154.3L 38.3 124.4ZM 102.2 154.3L 49.9 102.4L 38.3 119.1L 90.6 170.9ZM 38.3 119.1L 102.9 148.9L 114.2 132.1L 49.9 102.4ZM 114.2 132.1L 40.4 62.4L 27.7 77.9L 102.9 148.9ZM 27.7 77.9L 101.5 129.7L 114.8 114.6L 40.4 62.4ZM 114.8 114.6L 68.4 64.2L 55.8 80L 101.5 129.7ZM 55.8 80L 121.4 117.5L 134.2 101.7L 68.4 64.2ZM 134.2 101.7L 85.6 47L 72.9 62.9L 121.4 117.5ZM 72.9 62.9L 133.8 95.7L 146.4 79.9L 85.6 47ZM 146.4 79.9L 93.8 19.7L 80.4 34.8L 133.8 95.7ZM 80.4 34.8L 129.1 68L 143.1 53.3L 93.8 19.7ZM 143.1 53.3L 108.5 6.7L 93.7 20.4L 129.1 68ZM 93.7 20.4L 109.4 34.1L 122.6 19.1L 108.5 6.7Z" fill-rule="nonzero"></path></g></g></g><g id="g-root-tx_scrumtea_1hgyo0c1ot63gi-fill" data-item-order="0" data-item-id="tx_scrumtea_1hgyo0c1ot63gi" data-item-class="Label Stroke SceneTarget SceneTitle" data-item-index="none" data-renderer-id="0" transform="translate(200, 2)"><g id="tx_scrumtea_1hgyo0c1ot63gi-fill" stroke="none" fill="#484848"><g><text style="font: bold 25px &quot;Shantell Sans&quot;, cursive; white-space: pre;"><tspan x="13.89" y="45" dominant-baseline="ideographic">Scrum-Rollen</tspan></text></g></g></g><g id="g-root-tx_scrummas_145i5n01ot651f-fill" data-item-order="0" data-item-id="tx_scrummas_145i5n01ot651f" data-item-class="Label Stroke SceneTarget Indexed Indexed_1" data-item-index="1" data-renderer-id="0" transform="translate(2, 122.00001525878906)"><g id="tx_scrummas_145i5n01ot651f-fill" stroke="none" fill="#484848"><g><text style="font: 20px &quot;Shantell Sans&quot;, cursive; white-space: pre;"><tspan x="17.48" y="35" dominant-baseline="ideographic">Scrum Master</tspan></text></g></g></g><g id="g-root-tx_producto_hz143w1ot6499-fill" data-item-order="0" data-item-id="tx_producto_hz143w1ot6499" data-item-class="Label Stroke SceneTarget Indexed" data-item-index="2" data-renderer-id="0" transform="translate(434, 122.00001525878906)"><g id="tx_producto_hz143w1ot6499-fill" stroke="none" fill="#484848"><g><text style="font: 20px &quot;Shantell Sans&quot;, cursive; white-space: pre;"><tspan x="12" y="35" dominant-baseline="ideographic">Product Owner</tspan></text></g></g></g><g id="g-root-targ_143mqdo1otabrb-fill" data-item-order="0" data-item-id="targ_143mqdo1otabrb" data-item-class="Icon Stroke SceneTarget Indexed Indexed_1 InsideFill" data-item-index="1" data-renderer-id="0" transform="translate(206, 164.00001525878906)"></g><g id="g-root-assi_mcz6z01otaayp-fill" data-item-order="0" data-item-id="assi_mcz6z01otaayp" data-item-class="Icon Stroke SceneTarget Indexed InsideFill" data-item-index="2" data-renderer-id="0" transform="translate(338, 164.00001525878906)"></g><g id="g-root-chat_znt8981otacjk-fill" data-item-order="0" data-item-id="chat_znt8981otacjk" data-item-class="Icon Stroke SceneTarget Indexed InsideFill" data-item-index="3" data-renderer-id="0" transform="translate(272, 273)"></g><g id="g-root-tx_entwickl_quo4cs1ot63gk-fill" data-item-order="0" data-item-id="tx_entwickl_quo4cs1ot63gk" data-item-class="Label Stroke SceneTarget Indexed" data-item-index="3" data-renderer-id="0" transform="translate(236, 398)"><g id="tx_entwickl_quo4cs1ot63gk-fill" stroke="none" fill="#484848"><g><text style="font: 20px &quot;Shantell Sans&quot;, cursive; white-space: pre;"><tspan x="12.77" y="35" dominant-baseline="ideographic">Entwickler</tspan></text></g></g></g><g id="g-root-3.cu_sy_1lws64s1ot62o9-stroke" data-item-order="-69877" data-item-id="3.cu_sy_1lws64s1ot62o9" data-item-class="ScenePart Indexed Fill Stroke" data-item-index="3" data-renderer-id="0" transform="translate(191.67901611328125, 235.50001525878906)"><g id="3.cu_sy_1lws64s1ot62o9-stroke" fill="none" stroke-linecap="round" stroke-linejoin="round" stroke-miterlimit="4" stroke="#484848" stroke-width="4"><g><path d="M 139.821 10C 160.321 23.5 182.721 34 203.321 47.4C 199.621 51.1 197.321 56 194.521 60.4C 198.821 67.5 202.121 75.1 206.321 82.2C 199.021 91.4 190.121 99.8 179.421 104.7C 172.021 101.2 166.921 94 160.121 89.4C 151.321 94.8 140.721 96.7 130.621 100.1C 130.121 108.4 127.521 116.3 125.621 124.3C 119.921 125.1 114.121 125.5 108.121 125.5C 102.221 125.5 96.421 124.3 90.621 124.3C 87.721 116.6 85.921 108.4 85.721 100.1C 75.321 97.7 65.621 93.7 56.221 89.4C 50.421 95.3 42.221 98.4 36.921 104.7C 26.521 99.1 18.621 90.1 10.021 82.2C 12.421 74.3 17.721 67.6 21.821 60.4C 19.421 55.7 14.221 52.5 12.921 47.4C 33.221 33.3 54.721 21.1 76.821 10C 84.421 20 94.921 26.5 108.321 28.1C 121.721 29.8 132.621 20.2 139.821 10"></path><path d="M 139.825 10L 203.345 47.406C 200.688 51.982 197.725 56.34 194.501 60.436L 206.308 82.182C 198.379 90.811 189.36 98.394 179.428 104.713L 160.128 89.373C 150.979 94.297 141.046 97.958 130.59 100.137L 125.667 124.323C 119.96 125.064 114.079 125.5 108.154 125.5C 102.229 125.5 96.391 125.064 90.64 124.323L 85.717 100.137C 75.218 97.958 65.328 94.297 56.18 89.373L 36.88 104.713C 26.947 98.394 17.885 90.811 10 82.182L 21.806 60.436C 18.539 56.296 15.576 51.982 12.962 47.406L 76.817 10C 83.126 20.842 94.845 28.145 108.321 28.145C 121.796 28.145 133.536 20.842 139.825 10Z"></path></g></g></g><g id="g-root-2.cu_sy_1lws64s1ot62o8-stroke" data-item-order="-69875" data-item-id="2.cu_sy_1lws64s1ot62o8" data-item-class="ScenePart Indexed Fill Stroke" data-item-index="2" data-renderer-id="0" transform="translate(289.8759765625, 88.08702087402344)"><g id="2.cu_sy_1lws64s1ot62o8-stroke" fill="none" stroke-linecap="round" stroke-linejoin="round" stroke-miterlimit="4" stroke="#484848" stroke-width="4"><g><path d="M 105.124 194.913C 107.024 190.013 111.224 185.913 112.024 180.713C 120.224 179.513 128.724 178.413 136.824 180.013C 138.324 168.613 143.124 157.513 142.824 145.513C 135.724 141.313 127.924 137.813 119.824 136.413C 119.724 125.613 116.924 115.513 114.424 105.513C 120.124 99.513 127.124 95.013 132.924 89.113C 127.324 78.613 122.624 67.913 115.424 58.813C 107.224 60.013 99.924 64.513 91.924 66.613C 85.324 58.513 76.824 52.013 67.924 46.413C 69.024 38.313 70.824 30.213 71.524 22.013C 61.724 15.813 50.024 13.513 38.624 10.013C 34.824 17.313 30.524 24.413 25.724 31.113C 20.724 29.613 15.324 30.113 10.024 29.913C 10.424 41.813 8.624 53.913 10.024 65.713C 11.624 78.013 10.724 90.513 10.124 102.913C 30.124 104.713 46.224 119.313 46.424 139.513C 47.424 146.013 44.524 152.313 41.524 157.713C 62.224 170.913 84.424 181.613 105.124 194.913"></path><path d="M 105.148 194.863C 107.762 190.331 110.071 185.624 112.031 180.7L 136.777 180.046C 140.262 169.064 142.309 157.516 142.832 145.488L 119.829 136.423C 119.481 125.659 117.608 115.287 114.427 105.482L 132.943 89.096C 128.412 78.158 122.487 68.004 115.386 58.765L 91.947 66.609C 84.977 58.809 76.874 51.967 67.899 46.432L 71.558 21.984C 61.277 16.624 50.255 12.528 38.623 10L 25.684 31.092C 20.543 30.352 15.315 29.959 10 29.959L 10.124 102.913C 30.154 102.913 46.381 119.279 46.381 139.481L 46.36 139.44C 46.36 146.105 44.571 152.32 41.48 157.714L 105.148 194.863Z"></path></g></g></g><g id="g-root-1.cu_sy_1qbz7641ot651r-stroke" data-item-order="-69873" data-item-id="1.cu_sy_1qbz7641ot651r" data-item-class="ScenePart Indexed Indexed_1 Fill Stroke" data-item-index="1" data-renderer-id="0" transform="translate(157, 88.00001525878906)"><g id="1.cu_sy_1qbz7641ot651r-stroke" fill="none" stroke-linecap="round" stroke-linejoin="round" stroke-miterlimit="4" stroke="#484848" stroke-width="4"><g><path d="M 143 103.3C 123 102.7 105.4 119.5 106.7 139.5C 107.2 146 109.9 151.6 111.6 157.5C 91.1 171.3 69.3 183 47.7 194.9C 45.3 190.2 41.6 185.9 40.8 180.7C 32.6 182 24.1 182 16.1 180C 12.4 169.1 8.7 157.4 10 145.5C 18.1 143.7 25.6 140.1 33 136.4C 32.8 125.6 33.4 114.5 38.4 105.5C 33.6 98.8 25.2 95.4 19.9 89.1C 24.6 78.3 31.1 68.6 37.4 58.8C 45.4 60.8 52.8 65 60.9 66.6C 66.9 58 75.3 50.6 84.9 46.4C 82.2 38.7 81.5 30.2 81.3 22C 91 15.7 102.4 11.3 114.2 10C 119.8 16.1 122.5 24.3 127.1 31.1C 132 29.2 137.6 31 142.8 30C 143.6 54.4 143.1 78.9 143 103.3"></path><path d="M 143 103.308C 122.97 103.308 106.744 119.486 106.744 139.455L 106.764 139.415C 106.764 146.004 108.553 152.167 111.644 157.479L 47.685 194.863C 45.071 190.33 42.762 185.624 40.801 180.699L 16.056 180.046C 12.57 169.064 10.479 157.472 10 145.488L 33.003 136.423C 33.308 125.615 35.181 115.244 38.405 105.482L 19.889 89.096C 24.42 78.201 30.345 68.004 37.446 58.765L 60.885 66.609C 67.899 58.809 76.002 52.01 84.933 46.432L 81.274 21.984C 91.555 16.624 102.577 12.571 114.209 10L 127.149 31.092C 132.246 30.352 137.517 29.959 142.832 29.959L 143 103.308Z"></path></g></g></g><g id="g-root-tx_scrumtea_1hgyo0c1ot63gi-stroke" data-item-order="0" data-item-id="tx_scrumtea_1hgyo0c1ot63gi" data-item-class="Label Stroke SceneTarget SceneTitle" data-item-index="none" data-renderer-id="0" transform="translate(200, 2)"></g><g id="g-root-tx_scrummas_145i5n01ot651f-stroke" data-item-order="0" data-item-id="tx_scrummas_145i5n01ot651f" data-item-class="Label Stroke SceneTarget Indexed Indexed_1" data-item-index="1" data-renderer-id="0" transform="translate(2, 122.00001525878906)"></g><g id="g-root-tx_producto_hz143w1ot6499-stroke" data-item-order="0" data-item-id="tx_producto_hz143w1ot6499" data-item-class="Label Stroke SceneTarget Indexed" data-item-index="2" data-renderer-id="0" transform="translate(434, 122.00001525878906)"></g><g id="g-root-targ_143mqdo1otabrb-stroke" data-item-order="0" data-item-id="targ_143mqdo1otabrb" data-item-class="Icon Stroke SceneTarget Indexed Indexed_1 InsideFill" data-item-index="1" data-renderer-id="0" transform="translate(206, 164.00001525878906)"><g id="targ_143mqdo1otabrb-stroke" fill="none" stroke-linecap="round" stroke-linejoin="round" stroke-miterlimit="4" stroke="#484848" stroke-width="2"><g><path d="M 28 10.75C 27.7 12.55 28 14.2 28 16M 10.75 28C 12.55 28.15 14.2 27.85 16 28M 28 45.25C 28.3 43.6 27.4 41.65 28 40M 45.25 28C 43.45 27.7 41.65 28.15 40 28M 13.75 28C 14.95 35.8 20.2 42.25 28 42.25C 35.8 42.25 42.4 35.95 42.25 28C 42.1 20.2 35.8 14.95 28 13.75C 20.2 12.55 12.4 20.2 13.75 28M 35.8 23.65C 34.3 25.3 32.35 26.65 31 28.6C 32.5 30.7 31.45 34.45 28.9 35.35C 26.35 36.1 22.9 37 21.7 34.6C 20.65 32.05 20.05 29.95 21.1 27.55C 22.15 25 25.3 24.25 27.85 25.3C 29.65 24.1 31.75 22.6 32.65 20.5C 33.7 20.35 34.9 20.8 35.95 20.5C 35.65 21.55 35.95 22.6 35.8 23.65M 25.15 30.55C 25 31 25.45 31.3 25.75 31.3C 26.05 31.15 26.5 31 26.35 30.55C 26.35 30.25 26.05 29.95 25.75 29.95C 25.45 29.8 25.15 30.25 25.15 30.55"></path><path d="M 28 10.75L 28 16.035M 10.75 28L 16.035 28M 28 45.25L 28 39.965M 45.25 28L 39.965 28M 13.75 28C 13.75 35.87 20.13 42.25 28 42.25C 35.87 42.25 42.25 35.87 42.25 28C 42.25 20.13 35.87 13.75 28 13.75C 20.13 13.75 13.75 20.13 13.75 28M 35.851 23.673L 31 28.527C 31.974 31.011 31.072 33.838 28.839 35.299C 26.606 36.76 23.654 36.455 21.767 34.567C 19.881 32.68 19.577 29.728 21.039 27.496C 22.501 25.263 25.328 24.362 27.813 25.338L 32.664 20.485L 35.887 20.485ZM 25.094 30.581C 25.094 30.946 25.39 31.242 25.755 31.242C 26.119 31.242 26.415 30.946 26.414 30.581C 26.415 30.217 26.119 29.921 25.755 29.921C 25.39 29.921 25.094 30.217 25.094 30.581"></path></g></g></g><g id="g-root-assi_mcz6z01otaayp-stroke" data-item-order="0" data-item-id="assi_mcz6z01otaayp" data-item-class="Icon Stroke SceneTarget Indexed InsideFill" data-item-index="2" data-renderer-id="0" transform="translate(338, 164.00001525878906)"><g id="assi_mcz6z01otaayp-stroke" fill="none" stroke-linecap="round" stroke-linejoin="round" stroke-miterlimit="4" stroke="#484848" stroke-width="2"><g><path d="M 23.95 36.55C 24.1 38.8 25.75 40.75 28 40.6C 30.25 40.45 32.35 38.8 32.05 36.55C 31.6 34.3 30.1 33.1 28 32.5C 25.9 31.9 23.35 34.45 23.95 36.55M 33.7 45.25C 32.65 43 30.4 42.25 28 41.65C 25.6 41.2 23.2 43 22.3 45.25M 35.65 36.55C 34.9 38.65 37.45 40.6 39.7 40.6C 41.95 40.6 44.2 38.65 43.75 36.55C 43.3 34.3 41.8 33.25 39.7 32.5C 37.6 31.75 35.95 34.3 35.65 36.55M 45.25 44.65C 43.75 42.85 41.5 40.9 39.4 41.8C 37.15 42.55 34.15 42.85 33.7 45.1M 12.25 36.55C 11.65 38.65 14.2 40.9 16.3 40.6C 18.55 40.15 20.8 38.8 20.35 36.55C 19.9 34.3 18.55 33.1 16.3 32.5C 14.2 32.05 13.15 34.45 12.25 36.55M 10.75 44.65C 11.95 42.55 14.5 41.05 16.6 41.8C 18.85 42.4 21.1 43.15 22.3 45.1M 44.35 21.1C 41.95 23.95 38.8 26.05 36.55 28.9C 35.5 29.5 33.85 29.2 32.65 29.65C 32.95 28.3 33.1 27.1 33.4 25.75C 36.4 23.65 38.65 20.5 41.2 17.95C 42.1 17.2 43.45 17.2 44.35 17.95C 44.8 18.4 45.1 19 44.95 19.45C 44.8 20.05 44.65 20.65 44.35 21.1M 38.05 14.2C 36.7 13.3 35.8 11.5 34.15 10.9C 28.15 11.05 21.7 12.25 15.85 10.9C 14.5 16.45 15.1 22.3 15.85 28.15M 20.35 18.85C 20.8 19.45 21.7 19.75 22 20.35C 22.6 19.15 23.95 18.4 25 17.35M 20.35 26.5C 20.8 27.1 21.4 27.7 22 28.15C 22.75 26.8 23.65 25.75 25 25M 28.9 19.6C 29.65 19.6 30.4 19.9 31.15 19.6M 34.15 25C 35.05 26.2 36.4 26.95 37.3 28.15M 13.15 34C 14.65 36.25 17.65 36.1 20.35 36.55M 24.85 34C 26.35 36.25 29.35 36.85 32.05 36.55M 36.55 34C 38.05 36.25 41.05 36.7 43.75 36.55"></path><path d="M 23.974 36.547C 23.974 38.771 25.776 40.574 28 40.574C 30.224 40.574 32.026 38.771 32.026 36.547C 32.026 34.323 30.224 32.52 28 32.52C 25.776 32.52 23.974 34.323 23.974 36.547M 33.752 45.175C 32.619 43.051 30.407 41.725 28 41.725C 25.593 41.725 23.381 43.051 22.247 45.175M 35.659 36.547C 35.659 38.771 37.461 40.574 39.685 40.574C 41.909 40.574 43.711 38.771 43.711 36.547C 43.711 34.323 41.909 32.52 39.685 32.52C 37.461 32.52 35.659 34.323 35.659 36.547M 45.25 44.604C 43.902 42.7 41.674 41.617 39.344 41.733C 37.015 41.849 34.905 43.147 33.752 45.175M 12.289 36.547C 12.289 38.771 14.091 40.574 16.315 40.574C 18.539 40.574 20.341 38.771 20.341 36.547C 20.341 34.323 18.539 32.52 16.315 32.52C 14.091 32.52 12.289 34.323 12.289 36.547M 10.75 44.604C 12.098 42.7 14.326 41.617 16.656 41.733C 18.985 41.849 21.095 43.147 22.247 45.175M 44.308 21.045L 36.508 28.844L 32.673 29.611L 33.439 25.777L 41.239 17.977C 42.084 17.133 43.453 17.133 44.298 17.977L 44.306 17.986C 44.713 18.391 44.942 18.941 44.942 19.515C 44.942 20.089 44.714 20.639 44.308 21.045ZM 38.061 14.197L 34.205 10.825L 15.799 10.825L 15.799 28.081M 20.401 18.877L 21.934 20.411L 25.002 17.344M 20.401 26.547L 21.934 28.081L 25.002 25.012M 28.837 19.643L 31.138 19.643M 34.205 25.012L 37.273 28.081M 13.201 34C 15.082 35.871 17.7 36.806 20.341 36.55M 24.886 34C 26.767 35.871 29.385 36.806 32.026 36.55M 36.571 34C 38.453 35.871 41.071 36.806 43.713 36.55"></path></g></g></g><g id="g-root-chat_znt8981otacjk-stroke" data-item-order="0" data-item-id="chat_znt8981otacjk" data-item-class="Icon Stroke SceneTarget Indexed InsideFill" data-item-index="3" data-renderer-id="0" transform="translate(272, 273)"><g id="chat_znt8981otacjk-stroke" fill="none" stroke-linecap="round" stroke-linejoin="round" stroke-miterlimit="4" stroke="#484848" stroke-width="2"><g><path d="M 40.75 24.25C 40.6 25 40 26.05 39.25 25.75C 37.45 25 35.2 25.3 33.25 25.75C 32.05 27.55 30.1 28.6 28.75 30.25C 28.75 28.75 29.05 27.25 28.75 25.75C 25.3 26.35 21.7 26.35 18.25 25.75C 17.5 25.6 16.45 25 16.75 24.25C 17.8 20.35 16.75 16.3 16.75 12.25C 16.75 11.35 17.35 10.9 18.25 10.75C 25.15 9.7 32.35 11.5 39.25 10.75C 40 10.6 40.9 11.5 40.75 12.25C 40 16.15 39.55 20.5 40.75 24.25M 13.15 34.45C 13.75 36.55 15.1 38.35 17.35 38.5C 19.6 38.65 21.1 36.7 21.4 34.45C 21.85 32.05 19.6 30.55 17.35 30.25C 15.1 29.95 12.55 32.2 13.15 34.45M 23.95 45.25C 24.25 42.1 20.35 40.75 17.35 40C 14.2 39.25 11.2 42.1 10.75 45.25M 34.6 34.45C 34.9 36.7 36.55 39.25 38.65 38.5C 40.9 37.75 43.3 36.55 42.85 34.45C 42.25 32.2 40.75 29.35 38.65 30.25C 36.55 31.15 34.6 32.05 34.6 34.45M 45.25 45.25C 44.65 42.1 41.8 40.15 38.65 40C 35.5 39.85 31.9 42.1 32.05 45.25M 33.25 15.25C 34.6 15.85 35.35 17.2 36.25 18.25C 35.2 19.15 34.15 20.2 33.25 21.25M 24.25 15.25C 23.65 16.6 22.45 17.5 21.25 18.25C 22.6 18.85 23.65 20.05 24.25 21.25M 30.25 15.25C 29.5 17.35 28.45 19.45 27.25 21.25"></path><path d="M 40.75 24.25C 40.75 25.078 40.078 25.75 39.25 25.75L 33.25 25.75L 28.75 30.25L 28.75 25.75L 18.25 25.75C 17.422 25.75 16.75 25.078 16.75 24.25L 16.75 12.25C 16.75 11.422 17.422 10.75 18.25 10.75L 39.25 10.75C 40.078 10.75 40.75 11.422 40.75 12.25ZM 13.195 34.375C 13.195 36.653 15.042 38.5 17.32 38.5C 19.598 38.5 21.445 36.653 21.445 34.375C 21.445 32.097 19.598 30.25 17.32 30.25C 15.042 30.25 13.195 32.097 13.195 34.375M 23.89 45.25C 23.197 42.178 20.469 39.997 17.32 39.997C 14.171 39.997 11.443 42.178 10.75 45.25M 34.555 34.375C 34.555 36.653 36.402 38.5 38.68 38.5C 40.958 38.5 42.805 36.653 42.805 34.375C 42.805 32.097 40.958 30.25 38.68 30.25C 36.402 30.25 34.555 32.097 34.555 34.375M 45.25 45.25C 44.557 42.178 41.829 39.997 38.68 39.997C 35.531 39.997 32.803 42.178 32.11 45.25M 33.25 15.25L 36.25 18.25L 33.25 21.25M 24.25 15.25L 21.25 18.25L 24.25 21.25M 30.25 15.25L 27.25 21.25"></path></g></g></g><g id="g-root-tx_entwickl_quo4cs1ot63gk-stroke" data-item-order="0" data-item-id="tx_entwickl_quo4cs1ot63gk" data-item-class="Label Stroke SceneTarget Indexed" data-item-index="3" data-renderer-id="0" transform="translate(236, 398)"></g></g></svg>